<svg width="470" height="161" viewBox="0 0 470 161" fill="none" xmlns="http://www.w3.org/2000/svg">
<path d="M180 80.1671C180 68.243 165.067 56.9425 142.173 49.9348C147.456 26.6001 145.108 8.03506 134.762 2.09132C132.377 0.697104 129.588 0.0366892 126.543 0.0366892V8.21851C128.231 8.21851 129.588 8.54872 130.726 9.17244C135.715 12.0342 137.88 22.9311 136.192 36.9466C135.789 40.3954 135.128 44.0277 134.321 47.7334C127.13 45.9723 119.278 44.6148 111.023 43.7342C106.07 36.9466 100.934 30.7827 95.7603 25.3893C107.721 14.2723 118.948 8.18182 126.58 8.18182V0C116.49 0 103.282 7.1912 89.9266 19.6657C76.5715 7.26458 63.3632 0.14676 53.2735 0.14676V8.32858C60.8683 8.32858 72.1321 14.3824 84.0929 25.426C78.9564 30.8194 73.8198 36.9466 68.9401 43.7342C60.6482 44.6148 52.7966 45.9723 45.6054 47.7701C44.7615 44.1011 44.1378 40.5422 43.6975 37.13C41.9731 23.1146 44.1011 12.2177 49.0542 9.3192C50.1549 8.65879 51.5858 8.36527 53.2735 8.36527V0.183449C50.1916 0.183449 47.4032 0.843864 44.9817 2.23808C34.6718 8.18182 32.3604 26.7101 37.6804 49.9715C14.8594 57.0159 0 68.2797 0 80.1671C0 92.0913 14.9327 103.392 37.8271 110.4C32.5438 133.734 34.892 152.299 45.2385 158.243C47.6233 159.637 50.4117 160.298 53.4937 160.298C63.5834 160.298 76.7917 153.106 90.1468 140.632C103.502 153.033 116.71 160.151 126.8 160.151C129.882 160.151 132.67 159.49 135.092 158.096C145.402 152.152 147.713 133.624 142.393 110.363C165.141 103.355 180 92.0546 180 80.1671ZM132.23 55.6951C130.872 60.428 129.185 65.3078 127.277 70.1875C125.773 67.2523 124.195 64.3172 122.47 61.382C120.783 58.4468 118.985 55.585 117.187 52.7966C122.397 53.5671 127.424 54.521 132.23 55.6951ZM115.426 94.7697C112.564 99.7228 109.629 104.419 106.584 108.785C101.117 109.262 95.5769 109.519 90 109.519C84.4599 109.519 78.9197 109.262 73.4896 108.822C70.4444 104.456 67.4725 99.7962 64.6107 94.8797C61.8223 90.0734 59.2907 85.1936 56.9792 80.2772C59.254 75.3608 61.8223 70.4444 64.574 65.638C67.4358 60.6849 70.371 55.9886 73.4162 51.6225C78.883 51.1455 84.4232 50.8887 90 50.8887C95.5402 50.8887 101.08 51.1455 106.51 51.5858C109.556 55.9519 112.528 60.6115 115.389 65.5279C118.178 70.3343 120.709 75.214 123.021 80.1304C120.709 85.0469 118.178 89.9633 115.426 94.7697ZM127.277 90C129.258 94.9164 130.946 99.8329 132.34 104.603C127.534 105.777 122.47 106.767 117.224 107.538C119.022 104.713 120.819 101.814 122.507 98.8422C124.195 95.9071 125.773 92.9352 127.277 90ZM90.0734 129.148C86.6612 125.626 83.2491 121.7 79.8736 117.407C83.1757 117.554 86.5512 117.664 89.9633 117.664C93.4122 117.664 96.8243 117.591 100.163 117.407C96.861 121.7 93.4489 125.626 90.0734 129.148ZM62.7762 107.538C57.5662 106.767 52.5397 105.813 47.7334 104.639C49.0909 99.9062 50.7786 95.0265 52.6865 90.1468C54.1908 93.0819 55.7684 96.0171 57.4929 98.9523C59.2173 101.887 60.9784 104.749 62.7762 107.538ZM89.8899 31.1863C93.3021 34.7085 96.7142 38.6343 100.09 42.927C96.7876 42.7803 93.4122 42.6702 90 42.6702C86.5512 42.6702 83.139 42.7436 79.8003 42.927C83.1023 38.6343 86.5145 34.7085 89.8899 31.1863ZM62.7395 52.7966C60.9417 55.6217 59.1439 58.5202 57.4562 61.4921C55.7684 64.4272 54.1908 67.3624 52.6865 70.2976C50.7053 65.3812 49.0175 60.4647 47.6233 55.6951C52.4297 54.5577 57.4929 53.5671 62.7395 52.7966ZM29.5353 98.7322C16.5471 93.192 8.14513 85.9274 8.14513 80.1671C8.14513 74.4068 16.5471 67.1056 29.5353 61.6021C32.6906 60.2446 36.1394 59.0338 39.6983 57.8965C41.7896 65.0876 44.5414 72.5724 47.9535 80.2405C44.5781 87.872 41.863 95.32 39.8084 102.475C36.1761 101.337 32.7273 100.09 29.5353 98.7322ZM49.2744 151.162C44.2846 148.3 42.1199 137.403 43.8076 123.388C44.2112 119.939 44.8716 116.307 45.6788 112.601C52.87 114.362 60.7216 115.72 68.9768 116.6C73.9299 123.388 79.0665 129.552 84.2397 134.945C72.2788 146.062 61.0518 152.152 53.4203 152.152C51.7693 152.116 50.3751 151.786 49.2744 151.162ZM136.302 123.204C138.027 137.22 135.899 148.117 130.946 151.015C129.845 151.676 128.414 151.969 126.726 151.969C119.132 151.969 107.868 145.915 95.9071 134.872C101.044 129.478 106.18 123.351 111.06 116.563C119.352 115.683 127.203 114.325 134.395 112.528C135.238 116.233 135.899 119.792 136.302 123.204ZM150.428 98.7322C147.273 100.09 143.824 101.3 140.265 102.438C138.174 95.2466 135.422 87.7619 132.01 80.0938C135.385 72.4623 138.1 65.0143 140.155 57.8598C143.787 58.9971 147.236 60.2446 150.465 61.6021C163.453 67.1423 171.855 74.4068 171.855 80.1671C171.818 85.9274 163.416 93.2287 150.428 98.7322Z" fill="#61DAFB"/>
<path d="M89.9633 96.9344C99.2236 96.9344 106.731 89.4274 106.731 80.1671C106.731 70.9068 99.2236 63.3999 89.9633 63.3999C80.703 63.3999 73.1961 70.9068 73.1961 80.1671C73.1961 89.4274 80.703 96.9344 89.9633 96.9344Z" fill="#61DAFB"/>
<path d="M240.528 42.9928C244.944 42.9928 248.88 43.5688 252.336 44.7208C255.792 45.8088 258.672 47.4088 260.976 49.5208C263.344 51.5688 265.136 54.0648 266.352 57.0088C267.568 59.8888 268.176 63.1528 268.176 66.8008C268.176 69.6808 267.728 72.5608 266.832 75.4408C266 78.3208 264.592 80.9448 262.608 83.3128C260.688 85.6808 258.128 87.6008 254.928 89.0728C251.728 90.4808 247.76 91.1848 243.024 91.1848H233.04V113.649H219.12V42.9928H240.528ZM242.928 77.7448C245.04 77.7448 246.8 77.3928 248.208 76.6888C249.616 75.9848 250.704 75.0888 251.472 74.0008C252.304 72.9128 252.88 71.7928 253.2 70.6408C253.584 69.4248 253.776 68.3048 253.776 67.2808C253.776 66.5128 253.648 65.5528 253.392 64.4008C253.2 63.1848 252.752 61.9688 252.048 60.7528C251.344 59.5368 250.256 58.5128 248.784 57.6808C247.376 56.8488 245.456 56.4328 243.024 56.4328H233.04V77.7448H242.928ZM255.984 86.3848L273.456 113.649H257.232L239.376 86.7688L255.984 86.3848ZM301.49 114.801C296.37 114.801 292.018 113.841 288.434 111.921C284.914 110.001 282.226 107.345 280.37 103.953C278.514 100.561 277.586 96.6568 277.586 92.2408C277.586 88.0168 278.674 84.2088 280.85 80.8168C283.026 77.4248 285.938 74.7368 289.586 72.7528C293.234 70.7048 297.298 69.6808 301.778 69.6808C307.794 69.6808 312.722 71.4408 316.562 74.9608C320.466 78.4168 322.993 83.4408 324.146 90.0328L291.506 100.401L288.53 93.1048L312.146 85.1368L309.362 86.3848C308.85 84.7208 307.922 83.2808 306.578 82.0648C305.298 80.7848 303.346 80.1448 300.722 80.1448C298.738 80.1448 296.978 80.6248 295.442 81.5848C293.97 82.4808 292.818 83.7928 291.986 85.5208C291.218 87.1848 290.834 89.1688 290.834 91.4728C290.834 94.0968 291.314 96.3048 292.274 98.0968C293.234 99.8248 294.546 101.137 296.21 102.033C297.874 102.929 299.73 103.377 301.778 103.377C303.25 103.377 304.658 103.121 306.002 102.609C307.41 102.097 308.786 101.425 310.13 100.593L316.082 110.577C313.842 111.857 311.41 112.881 308.786 113.649C306.226 114.417 303.794 114.801 301.49 114.801ZM351.576 114.801C347.672 114.801 344.12 114.033 340.92 112.497C337.784 110.897 335.288 108.465 333.432 105.201C331.576 101.937 330.648 97.7768 330.648 92.7208C330.648 87.9848 331.608 83.8888 333.528 80.4328C335.448 76.9768 337.976 74.3208 341.112 72.4648C344.248 70.5448 347.576 69.5848 351.096 69.5848C355.256 69.5848 358.392 70.2888 360.504 71.6968C362.68 73.0408 364.472 74.5448 365.88 76.2088L365.304 77.8408L366.552 71.6968H379.032V113.649H365.592V104.529L366.648 107.409C366.52 107.409 366.136 107.793 365.496 108.561C364.856 109.265 363.896 110.129 362.616 111.153C361.4 112.113 359.864 112.945 358.008 113.649C356.216 114.417 354.072 114.801 351.576 114.801ZM355.416 103.857C357.016 103.857 358.456 103.633 359.736 103.185C361.016 102.673 362.136 101.969 363.096 101.073C364.056 100.113 364.888 98.9288 365.592 97.5208V87.2488C365.08 85.8408 364.312 84.6568 363.288 83.6968C362.264 82.6728 361.048 81.9048 359.64 81.3928C358.232 80.8168 356.664 80.5288 354.936 80.5288C353.016 80.5288 351.224 81.0408 349.56 82.0648C347.96 83.0248 346.68 84.3688 345.72 86.0968C344.76 87.8248 344.28 89.8088 344.28 92.0488C344.28 94.2888 344.792 96.3048 345.816 98.0968C346.84 99.8888 348.184 101.297 349.848 102.321C351.576 103.345 353.432 103.857 355.416 103.857ZM428.497 109.905C426.641 111.377 424.305 112.561 421.489 113.457C418.737 114.353 416.017 114.801 413.329 114.801C408.529 114.801 404.337 113.937 400.753 112.209C397.233 110.417 394.481 107.889 392.497 104.625C390.577 101.297 389.617 97.2968 389.617 92.6248C389.617 87.9528 390.673 83.9848 392.785 80.7208C394.897 77.3928 397.649 74.8648 401.041 73.1368C404.497 71.4088 408.113 70.5448 411.889 70.5448C415.665 70.5448 418.929 71.0568 421.681 72.0808C424.497 73.1048 426.897 74.4488 428.881 76.1128L422.353 84.7528C421.457 84.0488 420.209 83.3448 418.609 82.6408C417.073 81.8728 415.249 81.4888 413.137 81.4888C411.281 81.4888 409.585 81.9688 408.049 82.9288C406.513 83.8888 405.297 85.2008 404.401 86.8648C403.505 88.5288 403.057 90.4488 403.057 92.6248C403.057 94.6728 403.537 96.5608 404.497 98.2888C405.457 100.017 406.769 101.393 408.433 102.417C410.161 103.377 412.177 103.857 414.481 103.857C415.953 103.857 417.297 103.665 418.513 103.281C419.793 102.833 420.881 102.225 421.777 101.457L428.497 109.905ZM442.754 53.2648H456.194V71.5048H466.37V81.9688H456.194V113.649H442.754V81.9688H436.226V71.5048H442.754V53.2648Z" fill="#1E1E1E"/>
</svg>
